# Octahedron gem - 6 vertices, 8 triangular faces
o Gem

v  0.0  1.5  0.0
v  1.0  0.0  0.0
v  0.0  0.0  1.0
v -1.0  0.0  0.0
v  0.0  0.0 -1.0
v  0.0 -1.5  0.0

vn  0.577  0.577  0.577
vn -0.577  0.577  0.577
vn -0.577  0.577 -0.577
vn  0.577  0.577 -0.577
vn  0.577 -0.577  0.577
vn -0.577 -0.577  0.577
vn -0.577 -0.577 -0.577
vn  0.577 -0.577 -0.577

vt 0.5 1.0
vt 0.0 0.0
vt 1.0 0.0

f 1/1/1 3/2/1 2/3/1
f 1/1/2 4/2/2 3/3/2
f 1/1/3 5/2/3 4/3/3
f 1/1/4 2/2/4 5/3/4
f 6/1/5 2/2/5 3/3/5
f 6/1/6 3/2/6 4/3/6
f 6/1/7 4/2/7 5/3/7
f 6/1/8 5/2/8 2/3/8
